<svg xmlns="http://www.w3.org/2000/svg" viewBox="0 0 64 64">
  <rect width="64" height="64" rx="18" fill="#4A0F24"/>
  <path d="M32 50S12 38.4 12 23.7C12 16.8 16.6 12.5 22.5 12.5c4.2 0 7.4 2.4 9.5 5.7 2.1-3.3 5.3-5.7 9.5-5.7 5.9 0 10.5 4.3 10.5 11.2C52 38.4 32 50 32 50Z" fill="none" stroke="#C9A66B" stroke-width="3.2" stroke-linejoin="round"/>
  <path d="M32 45.5S17 36.4 17 24.4c0-4.7 3-7.2 6.7-7.2 3.1 0 5.5 1.9 6.9 4.7.3.6 1.1.6 1.4 0 1.5-2.8 3.9-4.7 6.9-4.7 3.8 0 6.7 2.5 6.7 7.2C45.7 36.4 32 45.5 32 45.5Z" fill="#D8A0A8" opacity=".24"/>
</svg>
